<?xml version="1.0" standalone="no"?>
<!DOCTYPE svg PUBLIC "-//W3C//DTD SVG 20010904//EN"
 "http://www.w3.org/TR/2001/REC-SVG-20010904/DTD/svg10.dtd">
<svg version="1.0" xmlns="http://www.w3.org/2000/svg"
 width="113.000000pt" height="128.000000pt" viewBox="0 0 113.000000 128.000000"
 preserveAspectRatio="xMidYMid meet">

<g transform="translate(0.000000,128.000000) scale(0.100000,-0.100000)"
fill="#000000" stroke="none">
<path d="M470 1200 c-8 -5 -33 -10 -55 -10 -42 0 -90 -24 -80 -40 3 -5 -7 -16
-22 -24 -24 -13 -25 -15 -8 -16 11 0 31 7 43 16 12 8 22 11 22 6 0 -12 -62
-42 -87 -42 -11 0 -28 -10 -39 -22 -10 -12 -13 -18 -6 -14 23 14 12 -26 -13
-46 -14 -11 -25 -27 -26 -36 0 -11 -2 -13 -6 -4 -3 8 -12 -1 -24 -23 -14 -25
-20 -58 -21 -113 -2 -106 12 -219 28 -233 8 -6 14 -19 15 -28 0 -13 1 -14 6
-1 12 32 37 50 70 50 23 0 33 -5 33 -15 0 -8 -4 -15 -8 -15 -4 0 -8 -9 -9 -21
-2 -24 -18 -46 -44 -60 -15 -7 -21 -4 -34 18 -15 27 -15 26 -13 -39 1 -40 -4
-73 -11 -81 -6 -8 -14 -41 -17 -73 -2 -33 -7 -69 -9 -82 -11 -49 44 -112 128
-143 56 -21 66 -22 151 -11 102 12 198 38 268 71 74 36 188 153 239 246 46 85
79 166 79 200 1 11 8 38 16 60 8 22 17 72 20 111 4 68 3 75 -37 155 -54 108
-127 187 -168 181 -22 -3 -33 2 -49 25 -15 22 -37 34 -81 46 -66 19 -226 23
-251 7z m32 -41 c12 -6 56 -11 99 -10 73 2 79 0 96 -24 10 -14 26 -35 36 -47
26 -31 11 -35 -19 -5 -20 21 -30 24 -44 17 -44 -24 -136 -2 -196 47 -35 29
-37 32 -16 33 13 0 33 -5 44 -11z m320 -158 c27 -10 102 -113 96 -131 -2 -7
-20 13 -41 44 -27 40 -45 58 -69 64 -17 4 -33 13 -36 20 -4 14 17 16 50 3z
m-284 -130 c9 -5 32 -15 50 -22 18 -6 54 -32 79 -56 25 -24 48 -42 51 -39 3 4
14 -6 24 -21 13 -21 18 -24 18 -10 0 9 4 17 10 17 17 0 30 -37 26 -79 -2 -22
0 -59 4 -81 5 -29 3 -43 -6 -51 -8 -6 -14 -17 -14 -24 0 -7 -9 -24 -21 -39
-13 -16 -18 -33 -14 -46 5 -15 0 -22 -20 -30 -14 -5 -23 -14 -20 -20 3 -5 -6
-12 -21 -16 -20 -5 -31 -2 -39 10 -7 9 -17 16 -21 15 -28 -7 -44 15 -44 60 0
49 -6 57 -85 121 -18 14 -18 14 0 -17 23 -40 13 -54 -32 -41 -24 6 -31 12 -26
25 6 14 -1 15 -61 9 -56 -6 -67 -4 -73 9 -7 19 42 146 70 181 23 29 34 30 42
4 4 -11 21 -36 39 -56 25 -27 41 -36 67 -36 55 -1 61 1 56 16 -3 7 0 13 6 13
7 -1 33 2 58 7 37 6 47 13 56 35 9 25 7 30 -21 48 -57 38 -74 43 -144 43 -56
0 -75 -4 -96 -21 l-28 -22 -50 26 c-27 14 -56 23 -64 20 -15 -5 -18 5 -8 31 3
8 12 12 20 9 7 -3 17 2 20 11 4 11 14 14 34 10 15 -4 31 -1 34 5 9 13 119 15
144 2z m87 -131 c24 -11 47 -26 51 -32 6 -10 4 -10 -7 -2 -8 6 -32 11 -54 12
-22 2 -53 8 -69 14 -26 10 -27 12 -10 19 30 12 42 10 89 -11z m284 -237 c8
-14 12 -15 25 -4 21 18 20 -2 -1 -27 -22 -26 -44 -32 -48 -12 -2 8 -4 20 -5
25 -8 35 12 47 29 18z m-524 -43 c3 -5 -3 -10 -15 -10 -12 0 -18 5 -15 10 3 6
10 10 15 10 5 0 12 -4 15 -10z m118 -40 c30 0 19 -29 -28 -75 -53 -51 -77 -61
-95 -40 -7 9 -21 13 -31 10 -11 -4 -19 -2 -19 4 0 13 33 23 52 16 8 -3 25 -2
38 3 l24 9 -22 19 c-13 10 -27 20 -32 20 -6 1 -12 3 -15 4 -6 3 -22 7 -35 9
-5 0 -10 5 -10 11 0 5 6 7 13 5 6 -3 32 -1 57 4 25 5 54 7 65 5 11 -2 28 -4
38 -4z"/>
<path d="M505 1120 c3 -5 8 -10 11 -10 2 0 4 5 4 10 0 6 -5 10 -11 10 -5 0 -7
-4 -4 -10z"/>
</g>
</svg>
